<svg width="800" height="800" xmlns="http://www.w3.org/2000/svg" preserveAspectRatio="xMidYMid slice" version="1.1">
 <defs>
  <pattern shape-rendering="crispEdges" patternTransform="matrix(40.06810760498047,0,0,40.401482628600206,-3206.810791015625,-3240.148231804371)" patternUnits="userSpaceOnUse" height="20" width="20" id="pppixelate-pattern">
   <rect id="svg_1" fill="hsl(0, 0%, 0%)" y="0" x="0" height="1" width="1"/>
   <rect id="svg_2" fill="hsl(0, 0%, 0%)" y="0" x="1" height="1" width="1"/>
   <rect id="svg_3" fill="hsl(0, 0%, 0%)" y="0" x="2" height="1" width="1"/>
   <rect id="svg_4" fill="hsl(0, 0%, 0%)" y="0" x="3" height="1" width="1"/>
   <rect id="svg_5" fill="hsl(0, 0%, 0%)" y="0" x="4" height="1" width="1"/>
   <rect id="svg_6" fill="hsl(0, 0%, 0%)" y="0" x="5" height="1" width="1"/>
   <rect id="svg_7" fill="hsl(0, 0%, 0%)" y="0" x="6" height="1" width="1"/>
   <rect id="svg_8" fill="hsl(0, 0%, 0%)" y="0" x="7" height="1" width="1"/>
   <rect id="svg_9" fill="hsl(0, 0%, 0%)" y="0" x="8" height="1" width="1"/>
   <rect id="svg_10" fill="hsl(0, 0%, 0%)" y="0" x="9" height="1" width="1"/>
   <rect id="svg_11" fill="hsl(0, 0%, 0%)" y="0" x="10" height="1" width="1"/>
   <rect id="svg_12" fill="hsl(0, 0%, 0%)" y="0" x="11" height="1" width="1"/>
   <rect id="svg_13" fill="hsl(0, 0%, 0%)" y="0" x="12" height="1" width="1"/>
   <rect id="svg_14" fill="hsl(0, 0%, 0%)" y="0" x="13" height="1" width="1"/>
   <rect id="svg_15" fill="hsl(0, 0%, 0%)" y="0" x="14" height="1" width="1"/>
   <rect id="svg_16" fill="hsl(0, 0%, 0%)" y="0" x="15" height="1" width="1"/>
   <rect id="svg_17" fill="hsl(0, 0%, 0%)" y="0" x="16" height="1" width="1"/>
   <rect id="svg_18" fill="hsl(0, 0%, 0%)" y="0" x="17" height="1" width="1"/>
   <rect id="svg_19" fill="hsl(0, 0%, 0%)" y="1" x="0" height="1" width="1"/>
   <rect id="svg_20" fill="hsl(0, 0%, 75%)" y="1" x="1" height="1" width="1"/>
   <rect id="svg_21" fill="hsl(50, 98%, 50%)" y="1" x="2" height="1" width="1"/>
   <rect id="svg_22" fill="hsl(0, 0%, 45%)" y="1" x="3" height="1" width="1"/>
   <rect id="svg_23" fill="hsl(338, 44%, 75%)" y="1" x="4" height="1" width="1"/>
   <rect id="svg_24" fill="hsl(117, 22%, 89%)" y="1" x="5" height="1" width="1"/>
   <rect id="svg_25" fill="hsl(117, 22%, 89%)" y="1" x="6" height="1" width="1"/>
   <rect id="svg_26" fill="hsl(117, 22%, 89%)" y="1" x="7" height="1" width="1"/>
   <rect id="svg_27" fill="hsl(117, 22%, 89%)" y="1" x="8" height="1" width="1"/>
   <rect id="svg_28" fill="hsl(117, 22%, 89%)" y="1" x="9" height="1" width="1"/>
   <rect id="svg_29" fill="hsl(117, 22%, 89%)" y="1" x="10" height="1" width="1"/>
   <rect id="svg_30" fill="hsl(117, 22%, 89%)" y="1" x="11" height="1" width="1"/>
   <rect id="svg_31" fill="hsl(0, 0%, 30%)" y="1" x="12" height="1" width="1"/>
   <rect id="svg_32" fill="hsl(117, 22%, 89%)" y="1" x="13" height="1" width="1"/>
   <rect id="svg_33" fill="hsl(0, 0%, 30%)" y="1" x="14" height="1" width="1"/>
   <rect id="svg_34" fill="hsl(117, 22%, 89%)" y="1" x="15" height="1" width="1"/>
   <rect id="svg_35" fill="hsl(0, 0%, 45%)" y="1" x="16" height="1" width="1"/>
   <rect id="svg_36" fill="hsl(0, 0%, 30%)" y="1" x="17" height="1" width="1"/>
   <rect id="svg_37" fill="hsl(0, 0%, 0%)" y="1" x="18" height="1" width="1"/>
   <rect id="svg_38" fill="hsl(0, 0%, 0%)" y="2" x="0" height="1" width="1"/>
   <rect id="svg_39" fill="hsl(50, 98%, 50%)" y="2" x="1" height="1" width="1"/>
   <rect id="svg_40" fill="hsl(205, 43%, 44%)" y="2" x="2" height="1" width="1"/>
   <rect id="svg_41" fill="hsl(230, 57%, 28%)" y="2" x="3" height="1" width="1"/>
   <rect id="svg_42" fill="hsl(338, 44%, 75%)" y="2" x="4" height="1" width="1"/>
   <rect id="svg_43" fill="hsl(117, 22%, 89%)" y="2" x="5" height="1" width="1"/>
   <rect id="svg_44" fill="hsl(117, 22%, 89%)" y="2" x="6" height="1" width="1"/>
   <rect id="svg_45" fill="hsl(117, 22%, 89%)" y="2" x="7" height="1" width="1"/>
   <rect id="svg_46" fill="hsl(117, 22%, 89%)" y="2" x="8" height="1" width="1"/>
   <rect id="svg_47" fill="hsl(117, 22%, 89%)" y="2" x="9" height="1" width="1"/>
   <rect id="svg_48" fill="hsl(117, 22%, 89%)" y="2" x="10" height="1" width="1"/>
   <rect id="svg_49" fill="hsl(117, 22%, 89%)" y="2" x="11" height="1" width="1"/>
   <rect id="svg_50" fill="hsl(0, 0%, 30%)" y="2" x="12" height="1" width="1"/>
   <rect id="svg_51" fill="hsl(117, 22%, 89%)" y="2" x="13" height="1" width="1"/>
   <rect id="svg_52" fill="hsl(0, 0%, 30%)" y="2" x="14" height="1" width="1"/>
   <rect id="svg_53" fill="hsl(117, 22%, 89%)" y="2" x="15" height="1" width="1"/>
   <rect id="svg_54" fill="hsl(230, 57%, 28%)" y="2" x="16" height="1" width="1"/>
   <rect id="svg_55" fill="hsl(205, 43%, 44%)" y="2" x="17" height="1" width="1"/>
   <rect id="svg_56" fill="hsl(0, 0%, 45%)" y="2" x="18" height="1" width="1"/>
   <rect id="svg_57" fill="hsl(0, 0%, 0%)" y="2" x="19" height="1" width="1"/>
   <rect id="svg_58" fill="hsl(0, 0%, 0%)" y="3" x="0" height="1" width="1"/>
   <rect id="svg_59" fill="hsl(184, 64%, 67%)" y="3" x="1" height="1" width="1"/>
   <rect id="svg_60" fill="hsl(205, 43%, 44%)" y="3" x="2" height="1" width="1"/>
   <rect id="svg_61" fill="hsl(230, 57%, 28%)" y="3" x="3" height="1" width="1"/>
   <rect id="svg_62" fill="hsl(338, 44%, 75%)" y="3" x="4" height="1" width="1"/>
   <rect id="svg_63" fill="hsl(117, 22%, 89%)" y="3" x="5" height="1" width="1"/>
   <rect id="svg_64" fill="hsl(117, 22%, 89%)" y="3" x="6" height="1" width="1"/>
   <rect id="svg_65" fill="hsl(117, 22%, 89%)" y="3" x="7" height="1" width="1"/>
   <rect id="svg_66" fill="hsl(117, 22%, 89%)" y="3" x="8" height="1" width="1"/>
   <rect id="svg_67" fill="hsl(117, 22%, 89%)" y="3" x="9" height="1" width="1"/>
   <rect id="svg_68" fill="hsl(117, 22%, 89%)" y="3" x="10" height="1" width="1"/>
   <rect id="svg_69" fill="hsl(117, 22%, 89%)" y="3" x="11" height="1" width="1"/>
   <rect id="svg_70" fill="hsl(0, 0%, 30%)" y="3" x="12" height="1" width="1"/>
   <rect id="svg_71" fill="hsl(203, 17%, 57%)" y="3" x="13" height="1" width="1"/>
   <rect id="svg_72" fill="hsl(0, 0%, 30%)" y="3" x="14" height="1" width="1"/>
   <rect id="svg_73" fill="hsl(117, 22%, 89%)" y="3" x="15" height="1" width="1"/>
   <rect id="svg_74" fill="hsl(230, 57%, 28%)" y="3" x="16" height="1" width="1"/>
   <rect id="svg_75" fill="hsl(205, 43%, 44%)" y="3" x="17" height="1" width="1"/>
   <rect id="svg_76" fill="hsl(0, 0%, 45%)" y="3" x="18" height="1" width="1"/>
   <rect id="svg_77" fill="hsl(0, 0%, 0%)" y="3" x="19" height="1" width="1"/>
   <rect id="svg_78" fill="hsl(0, 0%, 0%)" y="4" x="0" height="1" width="1"/>
   <rect id="svg_79" fill="hsl(184, 64%, 67%)" y="4" x="1" height="1" width="1"/>
   <rect id="svg_80" fill="hsl(205, 43%, 44%)" y="4" x="2" height="1" width="1"/>
   <rect id="svg_81" fill="hsl(230, 57%, 28%)" y="4" x="3" height="1" width="1"/>
   <rect id="svg_82" fill="hsl(338, 44%, 75%)" y="4" x="4" height="1" width="1"/>
   <rect id="svg_83" fill="hsl(117, 22%, 89%)" y="4" x="5" height="1" width="1"/>
   <rect id="svg_84" fill="hsl(117, 22%, 89%)" y="4" x="6" height="1" width="1"/>
   <rect id="svg_85" fill="hsl(117, 22%, 89%)" y="4" x="7" height="1" width="1"/>
   <rect id="svg_86" fill="hsl(117, 22%, 89%)" y="4" x="8" height="1" width="1"/>
   <rect id="svg_87" fill="hsl(117, 22%, 89%)" y="4" x="9" height="1" width="1"/>
   <rect id="svg_88" fill="hsl(117, 22%, 89%)" y="4" x="10" height="1" width="1"/>
   <rect id="svg_89" fill="hsl(117, 22%, 89%)" y="4" x="11" height="1" width="1"/>
   <rect id="svg_90" fill="hsl(0, 0%, 30%)" y="4" x="12" height="1" width="1"/>
   <rect id="svg_91" fill="hsl(203, 17%, 57%)" y="4" x="13" height="1" width="1"/>
   <rect id="svg_92" fill="hsl(0, 0%, 30%)" y="4" x="14" height="1" width="1"/>
   <rect id="svg_93" fill="hsl(117, 22%, 89%)" y="4" x="15" height="1" width="1"/>
   <rect id="svg_94" fill="hsl(230, 57%, 28%)" y="4" x="16" height="1" width="1"/>
   <rect id="svg_95" fill="hsl(205, 43%, 44%)" y="4" x="17" height="1" width="1"/>
   <rect id="svg_96" fill="hsl(0, 0%, 45%)" y="4" x="18" height="1" width="1"/>
   <rect id="svg_97" fill="hsl(0, 0%, 0%)" y="4" x="19" height="1" width="1"/>
   <rect id="svg_98" fill="hsl(0, 0%, 0%)" y="5" x="0" height="1" width="1"/>
   <rect id="svg_99" fill="hsl(184, 64%, 67%)" y="5" x="1" height="1" width="1"/>
   <rect id="svg_100" fill="hsl(205, 43%, 44%)" y="5" x="2" height="1" width="1"/>
   <rect id="svg_101" fill="hsl(230, 57%, 28%)" y="5" x="3" height="1" width="1"/>
   <rect id="svg_102" fill="hsl(338, 44%, 75%)" y="5" x="4" height="1" width="1"/>
   <rect id="svg_103" fill="hsl(117, 22%, 89%)" y="5" x="5" height="1" width="1"/>
   <rect id="svg_104" fill="hsl(117, 22%, 89%)" y="5" x="6" height="1" width="1"/>
   <rect id="svg_105" fill="hsl(117, 22%, 89%)" y="5" x="7" height="1" width="1"/>
   <rect id="svg_106" fill="hsl(117, 22%, 89%)" y="5" x="8" height="1" width="1"/>
   <rect id="svg_107" fill="hsl(117, 22%, 89%)" y="5" x="9" height="1" width="1"/>
   <rect id="svg_108" fill="hsl(117, 22%, 89%)" y="5" x="10" height="1" width="1"/>
   <rect id="svg_109" fill="hsl(117, 22%, 89%)" y="5" x="11" height="1" width="1"/>
   <rect id="svg_110" fill="hsl(0, 0%, 30%)" y="5" x="12" height="1" width="1"/>
   <rect id="svg_111" fill="hsl(203, 17%, 57%)" y="5" x="13" height="1" width="1"/>
   <rect id="svg_112" fill="hsl(0, 0%, 30%)" y="5" x="14" height="1" width="1"/>
   <rect id="svg_113" fill="hsl(117, 22%, 89%)" y="5" x="15" height="1" width="1"/>
   <rect id="svg_114" fill="hsl(230, 57%, 28%)" y="5" x="16" height="1" width="1"/>
   <rect id="svg_115" fill="hsl(205, 43%, 44%)" y="5" x="17" height="1" width="1"/>
   <rect id="svg_116" fill="hsl(0, 0%, 45%)" y="5" x="18" height="1" width="1"/>
   <rect id="svg_117" fill="hsl(0, 0%, 0%)" y="5" x="19" height="1" width="1"/>
   <rect id="svg_118" fill="hsl(0, 0%, 0%)" y="6" x="0" height="1" width="1"/>
   <rect id="svg_119" fill="hsl(184, 64%, 67%)" y="6" x="1" height="1" width="1"/>
   <rect id="svg_120" fill="hsl(205, 43%, 44%)" y="6" x="2" height="1" width="1"/>
   <rect id="svg_121" fill="hsl(230, 57%, 28%)" y="6" x="3" height="1" width="1"/>
   <rect id="svg_122" fill="hsl(338, 44%, 75%)" y="6" x="4" height="1" width="1"/>
   <rect id="svg_123" fill="hsl(117, 22%, 89%)" y="6" x="5" height="1" width="1"/>
   <rect id="svg_124" fill="hsl(117, 22%, 89%)" y="6" x="6" height="1" width="1"/>
   <rect id="svg_125" fill="hsl(117, 22%, 89%)" y="6" x="7" height="1" width="1"/>
   <rect id="svg_126" fill="hsl(117, 22%, 89%)" y="6" x="8" height="1" width="1"/>
   <rect id="svg_127" fill="hsl(117, 22%, 89%)" y="6" x="9" height="1" width="1"/>
   <rect id="svg_128" fill="hsl(117, 22%, 89%)" y="6" x="10" height="1" width="1"/>
   <rect id="svg_129" fill="hsl(117, 22%, 89%)" y="6" x="11" height="1" width="1"/>
   <rect id="svg_130" fill="hsl(0, 0%, 30%)" y="6" x="12" height="1" width="1"/>
   <rect id="svg_131" fill="hsl(0, 0%, 30%)" y="6" x="13" height="1" width="1"/>
   <rect id="svg_132" fill="hsl(0, 0%, 30%)" y="6" x="14" height="1" width="1"/>
   <rect id="svg_133" fill="hsl(117, 22%, 89%)" y="6" x="15" height="1" width="1"/>
   <rect id="svg_134" fill="hsl(230, 57%, 28%)" y="6" x="16" height="1" width="1"/>
   <rect id="svg_135" fill="hsl(205, 43%, 44%)" y="6" x="17" height="1" width="1"/>
   <rect id="svg_136" fill="hsl(0, 0%, 45%)" y="6" x="18" height="1" width="1"/>
   <rect id="svg_137" fill="hsl(0, 0%, 0%)" y="6" x="19" height="1" width="1"/>
   <rect id="svg_138" fill="hsl(0, 0%, 0%)" y="7" x="0" height="1" width="1"/>
   <rect id="svg_139" fill="hsl(0, 0%, 75%)" y="7" x="1" height="1" width="1"/>
   <rect id="svg_140" fill="hsl(205, 43%, 44%)" y="7" x="2" height="1" width="1"/>
   <rect id="svg_141" fill="hsl(230, 57%, 28%)" y="7" x="3" height="1" width="1"/>
   <rect id="svg_142" fill="hsl(338, 44%, 75%)" y="7" x="4" height="1" width="1"/>
   <rect id="svg_143" fill="hsl(338, 44%, 75%)" y="7" x="5" height="1" width="1"/>
   <rect id="svg_144" fill="hsl(338, 44%, 75%)" y="7" x="6" height="1" width="1"/>
   <rect id="svg_145" fill="hsl(338, 44%, 75%)" y="7" x="7" height="1" width="1"/>
   <rect id="svg_146" fill="hsl(338, 44%, 75%)" y="7" x="8" height="1" width="1"/>
   <rect id="svg_147" fill="hsl(338, 44%, 75%)" y="7" x="9" height="1" width="1"/>
   <rect id="svg_148" fill="hsl(338, 44%, 75%)" y="7" x="10" height="1" width="1"/>
   <rect id="svg_149" fill="hsl(338, 44%, 75%)" y="7" x="11" height="1" width="1"/>
   <rect id="svg_150" fill="hsl(338, 44%, 75%)" y="7" x="12" height="1" width="1"/>
   <rect id="svg_151" fill="hsl(338, 44%, 75%)" y="7" x="13" height="1" width="1"/>
   <rect id="svg_152" fill="hsl(338, 44%, 75%)" y="7" x="14" height="1" width="1"/>
   <rect id="svg_153" fill="hsl(338, 44%, 75%)" y="7" x="15" height="1" width="1"/>
   <rect id="svg_154" fill="hsl(230, 57%, 28%)" y="7" x="16" height="1" width="1"/>
   <rect id="svg_155" fill="hsl(205, 43%, 44%)" y="7" x="17" height="1" width="1"/>
   <rect id="svg_156" fill="hsl(0, 0%, 45%)" y="7" x="18" height="1" width="1"/>
   <rect id="svg_157" fill="hsl(0, 0%, 0%)" y="7" x="19" height="1" width="1"/>
   <rect id="svg_158" fill="hsl(0, 0%, 0%)" y="8" x="0" height="1" width="1"/>
   <rect id="svg_159" fill="hsl(0, 0%, 75%)" y="8" x="1" height="1" width="1"/>
   <rect id="svg_160" fill="hsl(205, 43%, 44%)" y="8" x="2" height="1" width="1"/>
   <rect id="svg_161" fill="hsl(205, 43%, 44%)" y="8" x="3" height="1" width="1"/>
   <rect id="svg_162" fill="hsl(230, 57%, 28%)" y="8" x="4" height="1" width="1"/>
   <rect id="svg_163" fill="hsl(230, 57%, 28%)" y="8" x="5" height="1" width="1"/>
   <rect id="svg_164" fill="hsl(230, 57%, 28%)" y="8" x="6" height="1" width="1"/>
   <rect id="svg_165" fill="hsl(230, 57%, 28%)" y="8" x="7" height="1" width="1"/>
   <rect id="svg_166" fill="hsl(230, 57%, 28%)" y="8" x="8" height="1" width="1"/>
   <rect id="svg_167" fill="hsl(230, 57%, 28%)" y="8" x="9" height="1" width="1"/>
   <rect id="svg_168" fill="hsl(230, 57%, 28%)" y="8" x="10" height="1" width="1"/>
   <rect id="svg_169" fill="hsl(230, 57%, 28%)" y="8" x="11" height="1" width="1"/>
   <rect id="svg_170" fill="hsl(230, 57%, 28%)" y="8" x="12" height="1" width="1"/>
   <rect id="svg_171" fill="hsl(230, 57%, 28%)" y="8" x="13" height="1" width="1"/>
   <rect id="svg_172" fill="hsl(230, 57%, 28%)" y="8" x="14" height="1" width="1"/>
   <rect id="svg_173" fill="hsl(230, 57%, 28%)" y="8" x="15" height="1" width="1"/>
   <rect id="svg_174" fill="hsl(205, 43%, 44%)" y="8" x="16" height="1" width="1"/>
   <rect id="svg_175" fill="hsl(205, 43%, 44%)" y="8" x="17" height="1" width="1"/>
   <rect id="svg_176" fill="hsl(0, 0%, 45%)" y="8" x="18" height="1" width="1"/>
   <rect id="svg_177" fill="hsl(0, 0%, 0%)" y="8" x="19" height="1" width="1"/>
   <rect id="svg_178" fill="hsl(0, 0%, 0%)" y="9" x="0" height="1" width="1"/>
   <rect id="svg_179" fill="hsl(0, 0%, 75%)" y="9" x="1" height="1" width="1"/>
   <rect id="svg_180" fill="hsl(205, 43%, 44%)" y="9" x="2" height="1" width="1"/>
   <rect id="svg_181" fill="hsl(205, 43%, 44%)" y="9" x="3" height="1" width="1"/>
   <rect id="svg_182" fill="hsl(205, 43%, 44%)" y="9" x="4" height="1" width="1"/>
   <rect id="svg_183" fill="hsl(205, 43%, 44%)" y="9" x="5" height="1" width="1"/>
   <rect id="svg_184" fill="hsl(205, 43%, 44%)" y="9" x="6" height="1" width="1"/>
   <rect id="svg_185" fill="hsl(205, 43%, 44%)" y="9" x="7" height="1" width="1"/>
   <rect id="svg_186" fill="hsl(205, 43%, 44%)" y="9" x="8" height="1" width="1"/>
   <rect id="svg_187" fill="hsl(205, 43%, 44%)" y="9" x="9" height="1" width="1"/>
   <rect id="svg_188" fill="hsl(205, 43%, 44%)" y="9" x="10" height="1" width="1"/>
   <rect id="svg_189" fill="hsl(205, 43%, 44%)" y="9" x="11" height="1" width="1"/>
   <rect id="svg_190" fill="hsl(205, 43%, 44%)" y="9" x="12" height="1" width="1"/>
   <rect id="svg_191" fill="hsl(205, 43%, 44%)" y="9" x="13" height="1" width="1"/>
   <rect id="svg_192" fill="hsl(205, 43%, 44%)" y="9" x="14" height="1" width="1"/>
   <rect id="svg_193" fill="hsl(205, 43%, 44%)" y="9" x="15" height="1" width="1"/>
   <rect id="svg_194" fill="hsl(205, 43%, 44%)" y="9" x="16" height="1" width="1"/>
   <rect id="svg_195" fill="hsl(205, 43%, 44%)" y="9" x="17" height="1" width="1"/>
   <rect id="svg_196" fill="hsl(0, 0%, 45%)" y="9" x="18" height="1" width="1"/>
   <rect id="svg_197" fill="hsl(0, 0%, 0%)" y="9" x="19" height="1" width="1"/>
   <rect id="svg_198" fill="hsl(0, 0%, 0%)" y="10" x="0" height="1" width="1"/>
   <rect id="svg_199" fill="hsl(0, 0%, 75%)" y="10" x="1" height="1" width="1"/>
   <rect id="svg_200" fill="hsl(205, 43%, 44%)" y="10" x="2" height="1" width="1"/>
   <rect id="svg_201" fill="hsl(205, 43%, 44%)" y="10" x="3" height="1" width="1"/>
   <rect id="svg_202" fill="hsl(205, 43%, 44%)" y="10" x="4" height="1" width="1"/>
   <rect id="svg_203" fill="hsl(205, 43%, 44%)" y="10" x="5" height="1" width="1"/>
   <rect id="svg_204" fill="hsl(205, 43%, 44%)" y="10" x="6" height="1" width="1"/>
   <rect id="svg_205" fill="hsl(205, 43%, 44%)" y="10" x="7" height="1" width="1"/>
   <rect id="svg_206" fill="hsl(205, 43%, 44%)" y="10" x="8" height="1" width="1"/>
   <rect id="svg_207" fill="hsl(205, 43%, 44%)" y="10" x="9" height="1" width="1"/>
   <rect id="svg_208" fill="hsl(205, 43%, 44%)" y="10" x="10" height="1" width="1"/>
   <rect id="svg_209" fill="hsl(205, 43%, 44%)" y="10" x="11" height="1" width="1"/>
   <rect id="svg_210" fill="hsl(205, 43%, 44%)" y="10" x="12" height="1" width="1"/>
   <rect id="svg_211" fill="hsl(205, 43%, 44%)" y="10" x="13" height="1" width="1"/>
   <rect id="svg_212" fill="hsl(205, 43%, 44%)" y="10" x="14" height="1" width="1"/>
   <rect id="svg_213" fill="hsl(205, 43%, 44%)" y="10" x="15" height="1" width="1"/>
   <rect id="svg_214" fill="hsl(205, 43%, 44%)" y="10" x="16" height="1" width="1"/>
   <rect id="svg_215" fill="hsl(205, 43%, 44%)" y="10" x="17" height="1" width="1"/>
   <rect id="svg_216" fill="hsl(0, 0%, 45%)" y="10" x="18" height="1" width="1"/>
   <rect id="svg_217" fill="hsl(0, 0%, 0%)" y="10" x="19" height="1" width="1"/>
   <rect id="svg_218" fill="hsl(0, 0%, 0%)" y="11" x="0" height="1" width="1"/>
   <rect id="svg_219" fill="hsl(0, 0%, 75%)" y="11" x="1" height="1" width="1"/>
   <rect id="svg_220" fill="hsl(205, 43%, 44%)" y="11" x="2" height="1" width="1"/>
   <rect id="svg_221" fill="hsl(0, 0%, 60%)" y="11" x="3" height="1" width="1"/>
   <rect id="svg_222" fill="hsl(0, 0%, 60%)" y="11" x="4" height="1" width="1"/>
   <rect id="svg_223" fill="hsl(0, 0%, 60%)" y="11" x="5" height="1" width="1"/>
   <rect id="svg_224" fill="hsl(0, 0%, 60%)" y="11" x="6" height="1" width="1"/>
   <rect id="svg_225" fill="hsl(0, 0%, 60%)" y="11" x="7" height="1" width="1"/>
   <rect id="svg_226" fill="hsl(0, 0%, 60%)" y="11" x="8" height="1" width="1"/>
   <rect id="svg_227" fill="hsl(0, 0%, 60%)" y="11" x="9" height="1" width="1"/>
   <rect id="svg_228" fill="hsl(0, 0%, 60%)" y="11" x="10" height="1" width="1"/>
   <rect id="svg_229" fill="hsl(0, 0%, 60%)" y="11" x="11" height="1" width="1"/>
   <rect id="svg_230" fill="hsl(0, 0%, 60%)" y="11" x="12" height="1" width="1"/>
   <rect id="svg_231" fill="hsl(0, 0%, 60%)" y="11" x="13" height="1" width="1"/>
   <rect id="svg_232" fill="hsl(0, 0%, 60%)" y="11" x="14" height="1" width="1"/>
   <rect id="svg_233" fill="hsl(338, 44%, 75%)" y="11" x="15" height="1" width="1"/>
   <rect id="svg_234" fill="hsl(338, 44%, 75%)" y="11" x="16" height="1" width="1"/>
   <rect id="svg_235" fill="hsl(205, 43%, 44%)" y="11" x="17" height="1" width="1"/>
   <rect id="svg_236" fill="hsl(0, 0%, 45%)" y="11" x="18" height="1" width="1"/>
   <rect id="svg_237" fill="hsl(0, 0%, 0%)" y="11" x="19" height="1" width="1"/>
   <rect id="svg_238" fill="hsl(0, 0%, 0%)" y="12" x="0" height="1" width="1"/>
   <rect id="svg_239" fill="hsl(0, 0%, 75%)" y="12" x="1" height="1" width="1"/>
   <rect id="svg_240" fill="hsl(205, 43%, 44%)" y="12" x="2" height="1" width="1"/>
   <rect id="svg_241" fill="hsl(10, 94%, 25%)" y="12" x="3" height="1" width="1"/>
   <rect id="svg_242" fill="hsl(38, 94%, 25%)" y="12" x="4" height="1" width="1"/>
   <rect id="svg_243" fill="hsl(38, 94%, 25%)" y="12" x="5" height="1" width="1"/>
   <rect id="svg_244" fill="hsl(38, 94%, 25%)" y="12" x="6" height="1" width="1"/>
   <rect id="svg_245" fill="hsl(38, 94%, 25%)" y="12" x="7" height="1" width="1"/>
   <rect id="svg_246" fill="hsl(38, 94%, 25%)" y="12" x="8" height="1" width="1"/>
   <rect id="svg_247" fill="hsl(38, 94%, 25%)" y="12" x="9" height="1" width="1"/>
   <rect id="svg_248" fill="hsl(38, 94%, 25%)" y="12" x="10" height="1" width="1"/>
   <rect id="svg_249" fill="hsl(38, 94%, 25%)" y="12" x="11" height="1" width="1"/>
   <rect id="svg_250" fill="hsl(38, 94%, 25%)" y="12" x="12" height="1" width="1"/>
   <rect id="svg_251" fill="hsl(38, 94%, 25%)" y="12" x="13" height="1" width="1"/>
   <rect id="svg_252" fill="hsl(38, 94%, 25%)" y="12" x="14" height="1" width="1"/>
   <rect id="svg_253" fill="hsl(38, 94%, 25%)" y="12" x="15" height="1" width="1"/>
   <rect id="svg_254" fill="hsl(0, 0%, 95%)" y="12" x="16" height="1" width="1"/>
   <rect id="svg_255" fill="hsl(205, 43%, 44%)" y="12" x="17" height="1" width="1"/>
   <rect id="svg_256" fill="hsl(0, 0%, 45%)" y="12" x="18" height="1" width="1"/>
   <rect id="svg_257" fill="hsl(0, 0%, 0%)" y="12" x="19" height="1" width="1"/>
   <rect id="svg_258" fill="hsl(0, 0%, 0%)" y="13" x="0" height="1" width="1"/>
   <rect id="svg_259" fill="hsl(0, 0%, 75%)" y="13" x="1" height="1" width="1"/>
   <rect id="svg_260" fill="hsl(205, 43%, 44%)" y="13" x="2" height="1" width="1"/>
   <rect id="svg_261" fill="hsl(230, 57%, 28%)" y="13" x="3" height="1" width="1"/>
   <rect id="svg_262" fill="hsl(10, 75%, 40%)" y="13" x="4" height="1" width="1"/>
   <rect id="svg_263" fill="hsl(10, 75%, 40%)" y="13" x="5" height="1" width="1"/>
   <rect id="svg_264" fill="hsl(10, 75%, 40%)" y="13" x="6" height="1" width="1"/>
   <rect id="svg_265" fill="hsl(10, 75%, 40%)" y="13" x="7" height="1" width="1"/>
   <rect id="svg_266" fill="hsl(10, 75%, 40%)" y="13" x="8" height="1" width="1"/>
   <rect id="svg_267" fill="hsl(10, 75%, 40%)" y="13" x="9" height="1" width="1"/>
   <rect id="svg_268" fill="hsl(10, 75%, 40%)" y="13" x="10" height="1" width="1"/>
   <rect id="svg_269" fill="hsl(10, 75%, 40%)" y="13" x="11" height="1" width="1"/>
   <rect id="svg_270" fill="hsl(10, 75%, 40%)" y="13" x="12" height="1" width="1"/>
   <rect id="svg_271" fill="hsl(10, 75%, 40%)" y="13" x="13" height="1" width="1"/>
   <rect id="svg_272" fill="hsl(10, 75%, 40%)" y="13" x="14" height="1" width="1"/>
   <rect id="svg_273" fill="hsl(10, 75%, 40%)" y="13" x="15" height="1" width="1"/>
   <rect id="svg_274" fill="hsl(50, 98%, 50%)" y="13" x="16" height="1" width="1"/>
   <rect id="svg_275" fill="hsl(205, 43%, 44%)" y="13" x="17" height="1" width="1"/>
   <rect id="svg_276" fill="hsl(0, 0%, 45%)" y="13" x="18" height="1" width="1"/>
   <rect id="svg_277" fill="hsl(0, 0%, 0%)" y="13" x="19" height="1" width="1"/>
   <rect id="svg_278" fill="hsl(0, 0%, 0%)" y="14" x="0" height="1" width="1"/>
   <rect id="svg_279" fill="hsl(0, 0%, 75%)" y="14" x="1" height="1" width="1"/>
   <rect id="svg_280" fill="hsl(205, 43%, 44%)" y="14" x="2" height="1" width="1"/>
   <rect id="svg_281" fill="hsl(230, 57%, 28%)" y="14" x="3" height="1" width="1"/>
   <rect id="svg_282" fill="hsl(117, 22%, 89%)" y="14" x="4" height="1" width="1"/>
   <rect id="svg_283" fill="hsl(117, 22%, 89%)" y="14" x="5" height="1" width="1"/>
   <rect id="svg_284" fill="hsl(117, 22%, 89%)" y="14" x="6" height="1" width="1"/>
   <rect id="svg_285" fill="hsl(117, 22%, 89%)" y="14" x="7" height="1" width="1"/>
   <rect id="svg_286" fill="hsl(117, 22%, 89%)" y="14" x="8" height="1" width="1"/>
   <rect id="svg_287" fill="hsl(117, 22%, 89%)" y="14" x="9" height="1" width="1"/>
   <rect id="svg_288" fill="hsl(117, 22%, 89%)" y="14" x="10" height="1" width="1"/>
   <rect id="svg_289" fill="hsl(117, 22%, 89%)" y="14" x="11" height="1" width="1"/>
   <rect id="svg_290" fill="hsl(117, 22%, 89%)" y="14" x="12" height="1" width="1"/>
   <rect id="svg_291" fill="hsl(117, 22%, 89%)" y="14" x="13" height="1" width="1"/>
   <rect id="svg_292" fill="hsl(117, 22%, 89%)" y="14" x="14" height="1" width="1"/>
   <rect id="svg_293" fill="hsl(117, 22%, 89%)" y="14" x="15" height="1" width="1"/>
   <rect id="svg_294" fill="hsl(184, 64%, 67%)" y="14" x="16" height="1" width="1"/>
   <rect id="svg_295" fill="hsl(205, 43%, 44%)" y="14" x="17" height="1" width="1"/>
   <rect id="svg_296" fill="hsl(0, 0%, 45%)" y="14" x="18" height="1" width="1"/>
   <rect id="svg_297" fill="hsl(0, 0%, 0%)" y="14" x="19" height="1" width="1"/>
   <rect id="svg_298" fill="hsl(0, 0%, 0%)" y="15" x="0" height="1" width="1"/>
   <rect id="svg_299" fill="hsl(205, 43%, 44%)" y="15" x="1" height="1" width="1"/>
   <rect id="svg_300" fill="hsl(205, 43%, 44%)" y="15" x="2" height="1" width="1"/>
   <rect id="svg_301" fill="hsl(230, 57%, 28%)" y="15" x="3" height="1" width="1"/>
   <rect id="svg_302" fill="hsl(0, 0%, 60%)" y="15" x="4" height="1" width="1"/>
   <rect id="svg_303" fill="hsl(0, 0%, 60%)" y="15" x="5" height="1" width="1"/>
   <rect id="svg_304" fill="hsl(0, 0%, 60%)" y="15" x="6" height="1" width="1"/>
   <rect id="svg_305" fill="hsl(0, 0%, 60%)" y="15" x="7" height="1" width="1"/>
   <rect id="svg_306" fill="hsl(0, 0%, 60%)" y="15" x="8" height="1" width="1"/>
   <rect id="svg_307" fill="hsl(0, 0%, 60%)" y="15" x="9" height="1" width="1"/>
   <rect id="svg_308" fill="hsl(0, 0%, 60%)" y="15" x="10" height="1" width="1"/>
   <rect id="svg_309" fill="hsl(0, 0%, 60%)" y="15" x="11" height="1" width="1"/>
   <rect id="svg_310" fill="hsl(0, 0%, 60%)" y="15" x="12" height="1" width="1"/>
   <rect id="svg_311" fill="hsl(0, 0%, 60%)" y="15" x="13" height="1" width="1"/>
   <rect id="svg_312" fill="hsl(0, 0%, 60%)" y="15" x="14" height="1" width="1"/>
   <rect id="svg_313" fill="hsl(0, 0%, 60%)" y="15" x="15" height="1" width="1"/>
   <rect id="svg_314" fill="hsl(184, 64%, 67%)" y="15" x="16" height="1" width="1"/>
   <rect id="svg_315" fill="hsl(205, 43%, 44%)" y="15" x="17" height="1" width="1"/>
   <rect id="svg_316" fill="hsl(0, 0%, 45%)" y="15" x="18" height="1" width="1"/>
   <rect id="svg_317" fill="hsl(0, 0%, 0%)" y="15" x="19" height="1" width="1"/>
   <rect id="svg_318" fill="hsl(0, 0%, 0%)" y="16" x="0" height="1" width="1"/>
   <rect id="svg_319" fill="hsl(230, 57%, 28%)" y="16" x="1" height="1" width="1"/>
   <rect id="svg_320" fill="hsl(205, 43%, 44%)" y="16" x="2" height="1" width="1"/>
   <rect id="svg_321" fill="hsl(230, 57%, 28%)" y="16" x="3" height="1" width="1"/>
   <rect id="svg_322" fill="hsl(0, 0%, 60%)" y="16" x="4" height="1" width="1"/>
   <rect id="svg_323" fill="hsl(0, 0%, 60%)" y="16" x="5" height="1" width="1"/>
   <rect id="svg_324" fill="hsl(0, 0%, 60%)" y="16" x="6" height="1" width="1"/>
   <rect id="svg_325" fill="hsl(0, 0%, 60%)" y="16" x="7" height="1" width="1"/>
   <rect id="svg_326" fill="hsl(0, 0%, 60%)" y="16" x="8" height="1" width="1"/>
   <rect id="svg_327" fill="hsl(0, 0%, 60%)" y="16" x="9" height="1" width="1"/>
   <rect id="svg_328" fill="hsl(0, 0%, 60%)" y="16" x="10" height="1" width="1"/>
   <rect id="svg_329" fill="hsl(0, 0%, 60%)" y="16" x="11" height="1" width="1"/>
   <rect id="svg_330" fill="hsl(0, 0%, 60%)" y="16" x="12" height="1" width="1"/>
   <rect id="svg_331" fill="hsl(0, 0%, 60%)" y="16" x="13" height="1" width="1"/>
   <rect id="svg_332" fill="hsl(0, 0%, 60%)" y="16" x="14" height="1" width="1"/>
   <rect id="svg_333" fill="hsl(0, 0%, 60%)" y="16" x="15" height="1" width="1"/>
   <rect id="svg_334" fill="hsl(184, 64%, 67%)" y="16" x="16" height="1" width="1"/>
   <rect id="svg_335" fill="hsl(205, 43%, 44%)" y="16" x="17" height="1" width="1"/>
   <rect id="svg_336" fill="hsl(10, 94%, 25%)" y="16" x="18" height="1" width="1"/>
   <rect id="svg_337" fill="hsl(0, 0%, 0%)" y="16" x="19" height="1" width="1"/>
   <rect id="svg_338" fill="hsl(0, 0%, 0%)" y="17" x="0" height="1" width="1"/>
   <rect id="svg_339" fill="hsl(0, 0%, 75%)" y="17" x="1" height="1" width="1"/>
   <rect id="svg_340" fill="hsl(205, 43%, 44%)" y="17" x="2" height="1" width="1"/>
   <rect id="svg_341" fill="hsl(230, 57%, 28%)" y="17" x="3" height="1" width="1"/>
   <rect id="svg_342" fill="hsl(117, 22%, 89%)" y="17" x="4" height="1" width="1"/>
   <rect id="svg_343" fill="hsl(117, 22%, 89%)" y="17" x="5" height="1" width="1"/>
   <rect id="svg_344" fill="hsl(117, 22%, 89%)" y="17" x="6" height="1" width="1"/>
   <rect id="svg_345" fill="hsl(117, 22%, 89%)" y="17" x="7" height="1" width="1"/>
   <rect id="svg_346" fill="hsl(117, 22%, 89%)" y="17" x="8" height="1" width="1"/>
   <rect id="svg_347" fill="hsl(117, 22%, 89%)" y="17" x="9" height="1" width="1"/>
   <rect id="svg_348" fill="hsl(117, 22%, 89%)" y="17" x="10" height="1" width="1"/>
   <rect id="svg_349" fill="hsl(117, 22%, 89%)" y="17" x="11" height="1" width="1"/>
   <rect id="svg_350" fill="hsl(117, 22%, 89%)" y="17" x="12" height="1" width="1"/>
   <rect id="svg_351" fill="hsl(117, 22%, 89%)" y="17" x="13" height="1" width="1"/>
   <rect id="svg_352" fill="hsl(117, 22%, 89%)" y="17" x="14" height="1" width="1"/>
   <rect id="svg_353" fill="hsl(117, 22%, 89%)" y="17" x="15" height="1" width="1"/>
   <rect id="svg_354" fill="hsl(184, 64%, 67%)" y="17" x="16" height="1" width="1"/>
   <rect id="svg_355" fill="hsl(205, 43%, 44%)" y="17" x="17" height="1" width="1"/>
   <rect id="svg_356" fill="hsl(0, 0%, 45%)" y="17" x="18" height="1" width="1"/>
   <rect id="svg_357" fill="hsl(0, 0%, 0%)" y="17" x="19" height="1" width="1"/>
   <rect id="svg_358" fill="hsl(0, 0%, 0%)" y="18" x="0" height="1" width="1"/>
   <rect id="svg_359" fill="hsl(0, 0%, 75%)" y="18" x="1" height="1" width="1"/>
   <rect id="svg_360" fill="hsl(205, 43%, 44%)" y="18" x="2" height="1" width="1"/>
   <rect id="svg_361" fill="hsl(10, 94%, 25%)" y="18" x="3" height="1" width="1"/>
   <rect id="svg_362" fill="hsl(0, 0%, 60%)" y="18" x="4" height="1" width="1"/>
   <rect id="svg_363" fill="hsl(0, 0%, 60%)" y="18" x="5" height="1" width="1"/>
   <rect id="svg_364" fill="hsl(0, 0%, 60%)" y="18" x="6" height="1" width="1"/>
   <rect id="svg_365" fill="hsl(0, 0%, 60%)" y="18" x="7" height="1" width="1"/>
   <rect id="svg_366" fill="hsl(0, 0%, 60%)" y="18" x="8" height="1" width="1"/>
   <rect id="svg_367" fill="hsl(0, 0%, 60%)" y="18" x="9" height="1" width="1"/>
   <rect id="svg_368" fill="hsl(0, 0%, 60%)" y="18" x="10" height="1" width="1"/>
   <rect id="svg_369" fill="hsl(0, 0%, 60%)" y="18" x="11" height="1" width="1"/>
   <rect id="svg_370" fill="hsl(0, 0%, 60%)" y="18" x="12" height="1" width="1"/>
   <rect id="svg_371" fill="hsl(0, 0%, 60%)" y="18" x="13" height="1" width="1"/>
   <rect id="svg_372" fill="hsl(0, 0%, 60%)" y="18" x="14" height="1" width="1"/>
   <rect id="svg_373" fill="hsl(0, 0%, 60%)" y="18" x="15" height="1" width="1"/>
   <rect id="svg_374" fill="hsl(184, 64%, 67%)" y="18" x="16" height="1" width="1"/>
   <rect id="svg_375" fill="hsl(205, 43%, 44%)" y="18" x="17" height="1" width="1"/>
   <rect id="svg_376" fill="hsl(0, 0%, 45%)" y="18" x="18" height="1" width="1"/>
   <rect id="svg_377" fill="hsl(0, 0%, 0%)" y="18" x="19" height="1" width="1"/>
   <rect id="svg_378" fill="hsl(0, 0%, 0%)" y="19" x="0" height="1" width="1"/>
   <rect id="svg_379" fill="hsl(0, 0%, 0%)" y="19" x="1" height="1" width="1"/>
   <rect id="svg_380" fill="hsl(0, 0%, 0%)" y="19" x="2" height="1" width="1"/>
   <rect id="svg_381" fill="hsl(0, 0%, 0%)" y="19" x="3" height="1" width="1"/>
   <rect id="svg_382" fill="hsl(0, 0%, 0%)" y="19" x="4" height="1" width="1"/>
   <rect id="svg_383" fill="hsl(0, 0%, 0%)" y="19" x="5" height="1" width="1"/>
   <rect id="svg_384" fill="hsl(0, 0%, 0%)" y="19" x="6" height="1" width="1"/>
   <rect id="svg_385" fill="hsl(0, 0%, 0%)" y="19" x="7" height="1" width="1"/>
   <rect id="svg_386" fill="hsl(0, 0%, 0%)" y="19" x="8" height="1" width="1"/>
   <rect id="svg_387" fill="hsl(0, 0%, 0%)" y="19" x="9" height="1" width="1"/>
   <rect id="svg_388" fill="hsl(0, 0%, 0%)" y="19" x="10" height="1" width="1"/>
   <rect id="svg_389" fill="hsl(0, 0%, 0%)" y="19" x="11" height="1" width="1"/>
   <rect id="svg_390" fill="hsl(0, 0%, 0%)" y="19" x="12" height="1" width="1"/>
   <rect id="svg_391" fill="hsl(0, 0%, 0%)" y="19" x="13" height="1" width="1"/>
   <rect id="svg_392" fill="hsl(0, 0%, 0%)" y="19" x="14" height="1" width="1"/>
   <rect id="svg_393" fill="hsl(0, 0%, 0%)" y="19" x="15" height="1" width="1"/>
   <rect id="svg_394" fill="hsl(0, 0%, 0%)" y="19" x="16" height="1" width="1"/>
   <rect id="svg_395" fill="hsl(0, 0%, 0%)" y="19" x="17" height="1" width="1"/>
   <rect id="svg_396" fill="hsl(0, 0%, 0%)" y="19" x="18" height="1" width="1"/>
   <rect id="svg_397" fill="hsl(0, 0%, 0%)" y="19" x="19" height="1" width="1"/>
  </pattern>
 </defs>
 <g>
  <title>Layer 1</title>
  <rect stroke="null" x="-3206.81065" y="-3240.14802" id="svg_398" fill="url(#pppixelate-pattern)" height="4040.14802" width="4006.81065"/>
 </g>
</svg>